<svg width="20" height="20" viewBox="0 0 20 20" xmlns="http://www.w3.org/2000/svg">

	<symbol viewBox="0 0 124 25">
		<path id="logo" fill-rule="evenodd" d="M 6.32066 15.0446C 4.10785 14.7003 2.02421 13.7647 2.02421 11.9321C 2.02421 10.0997 3.89548 9.0642 5.48384 9.0642C 7.00116 9.0642 8.12087 10.4513 8.12087 11.9719C 8.12087 12.7439 8.7479 13.3699 9.52168 13.3699C 10.2949 13.3699 10.9222 12.7439 10.9222 11.9719C 10.9225 9.8181 8.75927 8.21045 5.52156 8.21045C 3.2886 8.21045 0.0524457 9.48887 0.0524457 13.1026C 0.0524457 16.7168 3.32968 17.2902 5.85846 17.7973C 8.02968 18.2329 9.62734 19.2198 9.62734 20.9356C 9.62734 22.8699 7.61398 23.9946 5.90445 23.9946C 4.27164 23.9946 2.80393 22.4059 2.80393 21.0209C 2.80393 20.344 2.18207 19.6954 1.40959 19.6954C 0.616952 19.6954 0 20.3468 0 21.1515C 0 23.1133 2.38023 24.896 5.86414 24.896C 8.26685 24.896 11.7497 23.5148 11.7497 19.6998C 11.7495 16.2632 8.86132 15.4402 6.32066 15.0446L 6.32066 15.0446ZM 19.3288 8.23584C 22.69 8.23584 25.415 10.4636 25.415 13.9564L 25.415 19.2016C 25.415 22.6943 22.69 24.9221 19.3288 24.9221C 15.9676 24.9221 13.2427 22.6946 13.2427 19.2016L 13.2427 13.9564C 13.2427 10.4636 15.9676 8.23584 19.3288 8.23584ZM 22.6061 20.1267L 22.6061 13.0313C 22.6061 10.5222 21.5078 9.0694 19.3288 9.0694C 17.1501 9.0694 16.0515 10.5222 16.0515 13.0313L 16.0515 20.1267C 16.0515 22.5484 17.2273 24.0886 19.3288 24.0886C 21.4303 24.0886 22.6061 22.5487 22.6061 20.1267ZM 37.9235 18.9972C 37.151 18.9972 36.5251 19.6156 36.523 20.3791L 36.5227 20.3791L 36.523 20.3822L 36.5227 20.3825L 36.523 20.3825C 36.523 20.4015 36.5346 21.3158 36.5271 21.4302C 36.4222 22.9581 34.9992 24.1665 33.2561 24.1665C 31.1546 24.1665 29.9789 22.6262 29.9789 20.2046L 29.9789 13.1093C 29.9789 10.6001 31.0771 9.14743 33.2561 9.14743C 34.9995 9.14743 36.4222 10.3556 36.5271 11.8837C 36.5346 11.9981 36.523 12.9125 36.523 12.9315L 36.5227 12.9315L 36.523 12.9317L 36.5227 12.9348L 36.523 12.9348C 36.5251 13.6984 37.151 14.3165 37.9235 14.3165C 38.6958 14.3165 39.3308 13.6986 39.3238 12.9354L 39.3248 12.9354C 39.3248 12.9341 39.3243 12.9328 39.3241 12.9315L 39.3241 12.9312C 39.3243 10.2828 36.4602 8.31396 33.2561 8.31396C 29.8949 8.31396 27.17 10.5416 27.17 14.0343L 27.17 19.2796C 27.17 22.7726 29.8949 25 33.2561 25C 36.4607 25 39.3243 22.9653 39.3243 20.3827L 39.3243 20.3825C 39.3248 20.3812 39.3251 20.3796 39.3251 20.3786L 39.3241 20.3786C 39.3308 19.6153 38.6958 18.9972 37.9235 18.9972L 37.9235 18.9972ZM 44.69 8.38949C 44.0373 8.84363 43.3315 9.13413 42.5815 9.28895C 42.444 9.32662 42.3686 9.47143 42.3689 9.61271L 42.4002 24.241C 42.4005 24.4512 42.5698 24.6216 42.7785 24.6216L 44.797 24.6216C 45.0061 24.6216 45.1754 24.4509 45.1754 24.2407L 45.1754 8.71325C 45.1754 8.4616 44.8874 8.26764 44.69 8.38949L 44.69 8.38949ZM 46.4602 1.84837C 46.2725 1.66706 44.1128 1.51166 43.023 4.28215C 42.666 5.18956 42.0031 6.17114 41.3262 6.41661C 41.1703 6.47312 41.0721 6.62764 41.1031 6.79129L 41.1057 6.80571C 43.9499 6.55759 46.3517 4.56589 46.5397 2.44085C 46.5482 2.34401 46.5941 2.00907 46.4602 1.84837ZM 54.4194 8.23584C 57.7806 8.23584 60.5055 10.4636 60.5055 13.9564L 60.5055 19.2016C 60.5055 22.6943 57.7806 24.9221 54.4194 24.9221C 51.0582 24.9221 48.3333 22.6946 48.3333 19.2016L 48.3333 13.9564C 48.3333 10.4636 51.0582 8.23584 54.4194 8.23584ZM 57.6967 20.1267L 57.6967 13.0313C 57.6967 10.5222 56.5984 9.0694 54.4194 9.0694C 52.2407 9.0694 51.1421 10.5222 51.1421 13.0313L 51.1421 20.1267C 51.1421 22.5484 52.3179 24.0886 54.4194 24.0886C 56.5209 24.0886 57.6967 22.5487 57.6967 20.1267ZM 71.697 24.5772L 71.5113 24.0123C 71.4823 23.9244 71.3885 23.8784 71.3009 23.9067C 70.9757 24.0108 70.6445 24.0776 70.3425 24.0831C 68.4931 24.1151 66.9991 22.7513 66.9991 21.1234L 67.0055 10.7686L 69.5726 10.7686C 69.6643 10.7686 69.7384 10.6937 69.7384 10.6014L 69.7384 10.1068C 69.7384 10.0145 69.6643 9.93984 69.5726 9.93984L 67.0027 9.93984L 66.9962 2.63834C 66.9962 2.38635 66.7079 2.19287 66.5108 2.31457C 65.8579 2.76863 65.1521 3.05937 64.4021 3.2141C 64.2646 3.2518 64.1892 3.39665 64.1895 3.53786L 64.2094 9.93984L 61.841 9.93984C 61.7493 9.93984 61.6752 10.0145 61.6752 10.1068L 61.6752 10.6014C 61.6752 10.6937 61.7493 10.7686 61.8413 10.7686L 64.1962 10.7686L 64.1897 19.962C 64.1897 22.6933 66.9149 24.9077 70.2761 24.9077C 70.7204 24.9077 71.1532 24.8684 71.5702 24.7946C 71.6691 24.7769 71.7285 24.6734 71.697 24.5772L 71.697 24.5772ZM 81.5724 8.93666C 81.6905 8.98729 81.7235 9.13268 81.6387 9.22746C 81.463 9.42465 81.3007 9.62892 81.1525 9.83995C 81.0957 9.92089 80.9855 9.9462 80.901 9.89293C 80.3258 9.53091 79.4934 9.18919 78.8097 9.17742C 76.9606 9.14534 75.4664 10.5234 75.4664 12.1516L 75.4664 24.292C 75.4664 24.4739 75.2985 24.6216 75.0918 24.6216L 73.0318 24.6216C 72.8248 24.6216 72.6572 24.4742 72.6572 24.292L 72.6572 13.313C 72.6572 10.5814 75.3821 8.35919 78.7433 8.35919C 79.7653 8.35919 80.7273 8.57405 81.5724 8.93666ZM 87.9293 9.06398C 86.412 9.06398 85.2918 10.4638 85.2918 11.984C 85.2918 12.756 84.6646 13.3821 83.8912 13.3821C 83.1178 13.3821 82.4906 12.7734 82.4906 12.0014C 82.4906 9.84748 84.6541 8.21014 87.8916 8.21014C 91.2528 8.21014 93.6458 10.4491 93.6461 13.2105L 93.6441 21.6117C 93.6441 22.7434 94.4684 23.6858 95.5313 23.8727C 95.6272 23.8895 95.6962 23.9755 95.6962 24.0738L 95.6962 24.432C 95.6962 24.5388 95.6087 24.6271 95.5026 24.623C 94.2795 24.575 93.1713 24.0732 92.3417 23.2844C 91.2273 24.3837 89.5004 24.8961 87.5597 24.8961C 84.1985 24.8961 81.4736 23.4527 81.4736 20.6911L 81.4733 20.6911C 81.4733 18.6826 82.9318 17.6727 83.807 17.2042C 84.7751 16.6859 86.2614 16.2305 87.3644 15.7596C 89.1498 14.9973 90.837 14.2768 90.837 12.8114L 90.837 11.9605C 90.837 10.3481 89.7408 9.06398 87.9293 9.06398ZM 90.837 20.9786L 90.837 15.0406C 89.9238 15.5654 88.8641 16.0437 87.7694 16.5113C 85.9763 17.2772 84.2824 18.8801 84.2824 20.6914C 84.2824 22.8073 85.4175 24.0629 87.5597 24.0629C 89.4817 24.0629 90.837 22.7937 90.837 20.9786ZM 107.64 18.9972C 106.867 18.9972 106.241 19.6156 106.239 20.3791L 106.239 20.3791L 106.239 20.3822L 106.239 20.3825L 106.239 20.3825C 106.239 20.4015 106.251 21.3158 106.243 21.4302C 106.138 22.9581 104.715 24.1665 102.972 24.1665C 100.871 24.1665 99.695 22.6262 99.695 20.2046L 99.695 13.1093C 99.695 10.6001 100.793 9.14743 102.972 9.14743C 104.716 9.14743 106.138 10.3556 106.243 11.8837C 106.251 11.9981 106.239 12.9125 106.239 12.9315L 106.239 12.9315L 106.239 12.9317L 106.239 12.9348L 106.239 12.9348C 106.241 13.6984 106.867 14.3165 107.64 14.3165C 108.412 14.3165 109.047 13.6986 109.04 12.9354L 109.041 12.9354C 109.041 12.9341 109.04 12.9328 109.04 12.9315L 109.04 12.9312C 109.04 10.2828 106.176 8.31396 102.972 8.31396C 99.611 8.31396 96.8861 10.5416 96.8861 14.0343L 96.8861 19.2796C 96.8861 22.7726 99.611 25 102.972 25C 106.177 25 109.04 22.9653 109.04 20.3827L 109.04 20.3825C 109.041 20.3812 109.041 20.3796 109.041 20.3786L 109.04 20.3786C 109.047 19.6153 108.412 18.9972 107.64 18.9972L 107.64 18.9972ZM 118.226 13.0275C 118.634 12.8024 119.093 12.7868 119.665 12.7791C 122.625 12.74 123.249 10.6529 123.148 10.4118C 123.046 10.2288 122.719 10.1525 122.626 10.126C 120.795 9.60596 118.589 10.8942 117.066 12.9227C 116.781 13.2753 116.514 13.7077 116.273 14.0939C 115.897 14.6993 115.542 15.2709 114.998 15.5608C 114.774 15.68 114.505 15.7353 114.15 15.7353L 113.891 15.7353L 113.891 0.361166C 113.891 0.109223 113.603 -0.0844442 113.406 0.0374067C 112.753 0.491553 112.047 0.782053 111.297 0.936869C 111.16 0.974543 111.084 1.11935 111.085 1.26063L 111.116 24.2411C 111.116 24.4512 111.286 24.6216 111.494 24.6216L 113.513 24.6216C 113.722 24.6216 113.891 24.4512 113.891 24.2408L 113.891 16.5683L 114.35 16.5683C 116.322 16.5683 117.77 17.6782 118.193 19.3959C 118.626 21.155 118.742 21.9462 119.415 23.1432C 119.73 23.7381 120.695 24.619 121.208 24.619L 123.71 24.619C 123.87 24.619 124 24.4883 124 24.327L 124 24.0106C 124 23.8852 123.919 23.7772 123.802 23.7342C 122.179 23.1409 121.637 21.7655 121.049 19.0188C 120.565 16.7502 118.752 15.7665 116.114 15.7309C 116.452 15.3745 116.716 14.9509 116.975 14.5356C 117.345 13.9396 117.695 13.3245 118.226 13.0275L 118.226 13.0275Z"/>
	</symbol>

	<symbol id="notifications" viewBox="0 0 15 20">
		<path fill-rule="evenodd" d="M 13.9782 14.4288C 13.9782 14.5717 14.0464 14.7145 14.1487 14.7503C 15.5182 15.2888 15.1708 17.5003 13.5691 17.5L 10.1939 17.5C 10.0233 18.8928 8.86416 20 7.50039 20C 6.13662 20 4.97744 18.8928 4.80703 17.5L 1.43178 17.5C -0.190165 17.5 -0.504496 15.2835 0.852194 14.7499C 0.954366 14.7145 1.0226 14.5713 1.0226 14.4288L 1.0226 8.92873C 1.0226 7.07156 1.73855 5.32153 3.00002 4.03579C 3.95461 3.1072 5.11391 2.46433 6.37527 2.25004C 6.23891 2.00004 6.13662 1.71432 6.13662 1.4286C 6.13662 0.642868 6.75039 0 7.50039 0C 8.25051 0 8.86416 0.642868 8.86416 1.4286C 8.86416 1.75003 8.79592 2.00004 8.62551 2.25004C 11.6258 2.82148 13.9782 5.67867 13.9782 9.07159L 13.9782 14.4288ZM 8.18227 1.4286C 8.18227 1.03574 7.87539 0.714302 7.50039 0.714302C 7.12539 0.714302 6.8185 1.03574 6.8185 1.4286C 6.8185 1.82146 7.12539 2.1429 7.50039 2.1429C 7.87539 2.1429 8.18227 1.82146 8.18227 1.4286ZM 7.50039 19.2861C 6.47768 19.2861 5.65932 18.5003 5.48891 17.5003L 9.51198 17.5003C 9.34145 18.5003 8.52321 19.2861 7.50039 19.2861ZM 1.43166 16.786L 13.569 16.786C 14.4193 16.786 14.5755 15.6553 13.9099 15.3928C 13.5349 15.2503 13.2963 14.857 13.2963 14.4288L 13.2963 9.07159C 13.2963 5.73939 10.7366 2.85719 7.50039 2.85719C 6.00027 2.85719 4.56826 3.46435 3.47732 4.57151C 2.31814 5.71439 1.70437 7.25013 1.70437 8.92873L 1.70437 14.4288C 1.70437 14.8574 1.46572 15.2503 1.09072 15.3931C 0.34609 15.8392 0.712301 16.786 1.43166 16.786Z"/>
	</symbol>


	<symbol id="search-icon" viewBox="0 0 22 22">
		<path id="path0_fill" fill-rule="evenodd" d="M 19.6369 17.9113L 15.5145 13.8444C 16.6742 12.3891 17.372 10.5582 17.372 8.56842C 17.372 3.84385 13.4756 0 8.68658 0C 3.89644 0 0 3.84385 0 8.56842C 0 13.2919 3.89644 17.1358 8.68658 17.1358C 10.563 17.1358 12.2981 16.5381 13.7205 15.5364L 17.8818 19.6422C 18.1244 19.8811 18.4416 20 18.7599 20C 19.0771 20 19.3943 19.8811 19.6369 19.6422C 20.121 19.1645 20.121 18.3901 19.6369 17.9113ZM 2.48071 8.56842C 2.48071 5.19387 5.26532 2.44857 8.68653 2.44857C 12.1077 2.44857 14.8901 5.19387 14.8901 8.56842C 14.8901 11.943 12.1077 14.6872 8.68653 14.6872C 5.26532 14.6872 2.48071 11.943 2.48071 8.56842Z"/>
		<path id="path1_stroke" d="M 15.5145 13.8444L 14.8302 13.2991L 14.3398 13.9145L 14.9 14.4673L 15.5145 13.8444ZM 13.7205 15.5364L 14.335 14.9135L 13.8145 14.3999L 13.2166 14.821L 13.7205 15.5364ZM 17.8818 19.6422L 17.2672 20.2651L 17.2679 20.2658L 17.8818 19.6422ZM 19.6369 19.6422L 20.2508 20.2658L 20.2515 20.2651L 19.6369 19.6422ZM 20.2514 17.2884L 16.129 13.2215L 14.9 14.4673L 19.0224 18.5342L 20.2514 17.2884ZM 16.1988 14.3897C 17.4342 12.8227 18.2326 10.7166 18.247 8.56842L 16.497 8.56842C 16.5115 10.3998 15.9142 11.9555 14.8302 13.2991L 16.1988 14.3897ZM 18.247 8.56842C 18.247 3.34944 13.9476 -0.875 8.68658 -0.875L 8.68658 0.875C 13.0036 0.875 16.497 4.33826 16.497 8.56842L 18.247 8.56842ZM 8.68658 -0.875C 3.4245 -0.875 -0.875 3.34937 -0.875 8.56842L 0.875 8.56842C 0.875 4.33833 4.36838 0.875 8.68658 0.875L 8.68658 -0.875ZM -0.875 8.56842C -0.875 13.7865 3.42457 18.0108 8.68658 18.0108L 8.68658 16.2608C 4.36831 16.2608 0.875 12.7974 0.875 8.56842L -0.875 8.56842ZM 8.68658 18.0108C 10.7075 17.9988 12.6965 17.3172 14.2243 16.2518L 13.2166 14.821C 11.8998 15.7591 10.4185 16.2728 8.68658 16.2608L 8.68658 18.0108ZM 13.1059 16.1592L 17.2672 20.2651L 18.4963 19.0194L 14.335 14.9135L 13.1059 16.1592ZM 17.2679 20.2658C 17.6825 20.6739 18.2238 20.875 18.7599 20.875L 18.7599 19.125C 18.6594 19.125 18.5663 19.0883 18.4956 19.0187L 17.2679 20.2658ZM 18.7599 20.875C 19.2953 20.875 19.8364 20.6737 20.2508 20.2658L 19.023 19.0187C 18.9521 19.0885 18.8589 19.125 18.7599 19.125L 18.7599 20.875ZM 20.2515 20.2651C 21.0832 19.4443 21.0822 18.11 20.2522 17.2891L 19.0216 18.5334C 19.1598 18.6701 19.1588 18.8847 19.0223 19.0194L 20.2515 20.2651ZM 3.35571 8.56842C 3.35571 5.68866 5.73695 3.32357 8.68653 3.32357L 8.68653 1.57357C 4.79368 1.57357 1.60571 4.69909 1.60571 8.56842L 3.35571 8.56842ZM 8.68653 3.32357C 11.6357 3.32357 14.0151 5.68825 14.0151 8.56842L 15.7651 8.56842C 15.7651 4.6995 12.5798 1.57357 8.68653 1.57357L 8.68653 3.32357ZM 14.0151 8.56842C 14.0151 11.4484 11.6359 13.8122 8.68653 13.8122L 8.68653 15.5622C 12.5796 15.5622 15.7651 12.4375 15.7651 8.56842L 14.0151 8.56842ZM 8.68653 13.8122C 5.73675 13.8122 3.35571 11.448 3.35571 8.56842L 1.60571 8.56842C 1.60571 12.4379 4.79388 15.5622 8.68653 15.5622L 8.68653 13.8122Z"/>
	</symbol>

	<!-- <symbol id="path0_stroke" viewBox="0 0 20 20"> -->
		<!-- <path d="M 0.353553 -0.353553C 0.158291 -0.548816 -0.158291 -0.548816 -0.353553 -0.353553C -0.548816 -0.158291 -0.548816 0.158291 -0.353553 0.353553L 0.353553 -0.353553ZM 3 3L 2.64645 3.35355C 2.84171 3.54882 3.15829 3.54882 3.35355 3.35355L 3 3ZM 6.35355 0.353553C 6.54882 0.158291 6.54882 -0.158291 6.35355 -0.353553C 6.15829 -0.548816 5.84171 -0.548816 5.64645 -0.353553L 6.35355 0.353553ZM -0.353553 0.353553L 2.64645 3.35355L 3.35355 2.64645L 0.353553 -0.353553L -0.353553 0.353553ZM 3.35355 3.35355L 6.35355 0.353553L 5.64645 -0.353553L 2.64645 2.64645L 3.35355 3.35355Z"/> -->
	<!-- </symbol> -->
	<symbol id="dashboard-icon" viewBox="0 0 20 20">
		<path fill-rule="evenodd" d="M 7.22223 0L 1.66667 0C 0.746185 0 0 0.746193 0 1.66667L 0 7.22222C 0 8.1427 0.746185 8.88889 1.66667 8.88889L 7.22223 8.88889C 8.1427 8.88889 8.88889 8.1427 8.88889 7.22222L 8.88889 1.66667C 8.88889 0.746193 8.1427 0 7.22223 0ZM 1.11111 1.66667C 1.11111 1.35984 1.35985 1.11111 1.66667 1.11111L 7.22223 1.11111C 7.52905 1.11111 7.77779 1.35984 7.77779 1.66667L 7.77779 7.22222C 7.77779 7.52905 7.52905 7.77778 7.22223 7.77778L 1.66667 7.77778C 1.35985 7.77778 1.11111 7.52905 1.11111 7.22222L 1.11111 1.66667ZM 12.7778 1.11111C 12.471 1.11111 12.2222 1.35984 12.2222 1.66667L 12.2222 7.22222C 12.2222 7.52905 12.471 7.77778 12.7778 7.77778L 18.3333 7.77778C 18.6402 7.77778 18.8889 7.52905 18.8889 7.22222L 18.8889 1.66667C 18.8889 1.35984 18.6402 1.11111 18.3333 1.11111L 12.7778 1.11111ZM 18.3333 0L 12.7778 0C 11.8573 0 11.1111 0.746193 11.1111 1.66667L 11.1111 7.22222C 11.1111 8.1427 11.8573 8.88889 12.7778 8.88889L 18.3333 8.88889C 19.2538 8.88889 20 8.1427 20 7.22222L 20 1.66667C 20 0.746193 19.2538 0 18.3333 0ZM 1.66667 12.2222C 1.35985 12.2222 1.11111 12.471 1.11111 12.7778L 1.11111 18.3333C 1.11111 18.6402 1.35985 18.8889 1.66667 18.8889L 7.22223 18.8889C 7.52905 18.8889 7.77779 18.6402 7.77779 18.3333L 7.77779 12.7778C 7.77779 12.471 7.52905 12.2222 7.22223 12.2222L 1.66667 12.2222ZM 7.22223 11.1111L 1.66667 11.1111C 0.746185 11.1111 0 11.8573 0 12.7778L 0 18.3333C 0 19.2538 0.746185 20 1.66667 20L 7.22223 20C 8.1427 20 8.88889 19.2538 8.88889 18.3333L 8.88889 12.7778C 8.88889 11.8573 8.1427 11.1111 7.22223 11.1111ZM 12.7778 12.2222C 12.471 12.2222 12.2222 12.471 12.2222 12.7778L 12.2222 18.3333C 12.2222 18.6402 12.471 18.8889 12.7778 18.8889L 18.3333 18.8889C 18.6402 18.8889 18.8889 18.6402 18.8889 18.3333L 18.8889 12.7778C 18.8889 12.471 18.6402 12.2222 18.3333 12.2222L 12.7778 12.2222ZM 18.3333 11.1111L 12.7778 11.1111C 11.8573 11.1111 11.1111 11.8573 11.1111 12.7778L 11.1111 18.3333C 11.1111 19.2538 11.8573 20 12.7778 20L 18.3333 20C 19.2538 20 20 19.2538 20 18.3333L 20 12.7778C 20 11.8573 19.2538 11.1111 18.3333 11.1111Z"/>
	</symbol>
	<symbol id="social-feed-icon" viewBox="0 0 20 20">
		<path fill-rule="evenodd" d="M 17.078 20L 2.9216 20C 1.31081 20 0 18.6892 0 17.078L 0 2.9216C 0 1.3108 1.31081 0 2.9216 0L 17.078 0C 18.6892 0 20 1.3108 20 2.9216L 20 17.078C 20 18.6892 18.6892 20 17.078 20ZM 15.8668 13.3916C 15.8668 13.6128 16.0456 13.7916 16.2668 13.7916C 16.488 13.7916 16.6668 13.6124 16.6668 13.3916C 16.6668 10.7088 15.6196 8.1844 13.7176 6.28281C 11.8164 4.38081 9.2916 3.3336 6.6088 3.3336C 6.388 3.3336 6.2088 3.5128 6.2088 3.7336C 6.2088 3.9544 6.388 4.13361 6.6088 4.13361C 9.07761 4.13361 11.4012 5.098 13.152 6.8484C 14.9028 8.5988 15.8668 10.9224 15.8668 13.3916ZM 12.6476 13.3916C 12.6476 13.6128 12.8264 13.7916 13.0476 13.7916C 13.2688 13.7916 13.4476 13.6124 13.4476 13.3916C 13.4476 11.5676 12.7352 9.8512 11.442 8.558C 10.1496 7.2652 8.4328 6.5532 6.6084 6.5532C 6.3876 6.5532 6.2084 6.7324 6.2084 6.9532C 6.2084 7.174 6.3876 7.3532 6.6084 7.3532C 8.21881 7.3532 9.7348 7.982 10.8764 9.1236C 12.0188 10.266 12.6476 11.7816 12.6476 13.3916ZM 7.21201 15.2C 5.88161 15.2 4.79961 14.118 4.79961 12.788C 4.79961 11.458 5.882 10.3756 7.21201 10.3756C 8.54201 10.3756 9.62401 11.458 9.62401 12.788C 9.62401 14.118 8.54201 15.2 7.21201 15.2ZM 5.59959 12.7876C 5.59959 11.8988 6.3228 11.1752 7.21199 11.1752C 8.1008 11.1752 8.82399 11.8992 8.82399 12.788C 8.82399 13.6768 8.1008 14.4 7.21199 14.4C 6.3232 14.4 5.59959 13.6764 5.59959 12.7876ZM 0.800003 2.9216C 0.800003 1.7516 1.7516 0.800003 2.9216 0.800003L 17.078 0.800003C 18.248 0.800003 19.2 1.7516 19.2 2.9216L 19.2 17.078C 19.2 18.248 18.248 19.2 17.078 19.2L 2.9216 19.2C 1.7516 19.2 0.800003 18.248 0.800003 17.078L 0.800003 2.9216Z"/>
	</symbol>
	<symbol id="invite-friends-icon" viewBox="0 0 20 20">
		<path fill-rule="evenodd" d="M 16.627 3.52202L 19.5182 3.52202C 19.7841 3.52202 20 3.74742 20 4.02516C 20 4.30289 19.7841 4.52831 19.5182 4.52831L 16.627 4.52831L 16.627 7.54716C 16.627 7.82491 16.4111 8.05031 16.1452 8.05031C 15.8792 8.05031 15.6633 7.82491 15.6633 7.54716L 15.6633 4.52831L 12.7722 4.52831C 12.5062 4.52831 12.2903 4.30289 12.2903 4.02516C 12.2903 3.74742 12.5062 3.52202 12.7722 3.52202L 15.6633 3.52202L 15.6633 0.503143C 15.6633 0.225403 15.8792 0 16.1452 0C 16.4111 0 16.627 0.225403 16.627 0.503143L 16.627 3.52202ZM 3.2184 7.35269C 3.40826 7.86063 3.85542 9.01233 4.19392 9.54289L 4.232 9.60352L 4.23219 9.60384C 4.50713 10.0419 5.01877 10.8571 6.62706 10.8571C 8.23477 10.8571 8.74649 10.0423 9.02139 9.60452L 9.06043 9.54289C 9.39917 9.01257 9.8461 7.86063 10.036 7.35269C 10.3467 7.2083 10.5638 6.88277 10.5638 6.5054L 10.5638 5.65634C 10.5638 5.33031 10.4017 5.04301 10.1571 4.87747L 10.1571 4.59546C 10.1571 2.55295 8.83733 1.33333 6.62706 1.33333C 4.41678 1.33333 3.09699 2.55295 3.09699 4.59546L 3.09699 4.88226C 2.85413 5.0498 2.69029 5.3376 2.69029 5.65634L 2.69029 6.5054C 2.69054 6.88251 2.90761 7.20804 3.2184 7.35269ZM 3.65425 5.72881C 3.88457 5.69131 4.06093 5.48277 4.06093 5.2317L 4.06093 4.59521C 4.06093 3.11949 4.94852 2.33937 6.62729 2.33937C 8.30608 2.33937 9.19367 3.11949 9.19367 4.59521L 9.19367 5.2317C 9.19367 5.48277 9.36978 5.69107 9.60034 5.72881L 9.60034 6.43221C 9.43097 6.46013 9.28594 6.58113 9.22426 6.75246C 9.06018 7.20956 8.56677 8.50163 8.25887 8.98415L 8.21549 9.05232C 7.99216 9.40805 7.71436 9.85057 6.62706 9.85057C 5.53963 9.85057 5.26178 9.40804 5.03851 9.05241L 5.03813 9.05182L 4.99548 8.98441C 4.68807 8.50214 4.19417 7.2093 4.02985 6.7522C 3.96817 6.58063 3.82338 6.45987 3.65376 6.43195L 3.65376 5.72881L 3.65425 5.72881ZM 1.43193 11.8385L 11.8219 11.8385C 12.2809 11.8385 12.6943 12.0279 12.957 12.358C 13.2106 12.677 13.3065 13.0961 13.227 13.5381C 13.1168 14.1521 12.5664 14.72 12.2372 15.0597L 12.2366 15.0604L 12.1631 15.1366L 8.12875 19.3492C 7.75774 19.7363 7.26599 19.9643 6.73885 19.9947C 6.71909 19.9977 6.69885 19.9995 6.67838 20L 6.58707 20C 6.56418 20 6.54152 19.9982 6.51961 19.995C 5.99124 19.9658 5.49806 19.7376 5.12584 19.3494L 1.01753 15.0604C 0.688416 14.7207 0.137421 14.1522 0.0270697 13.5379C -0.0521845 13.0958 0.0439459 12.6767 0.297639 12.3575C 0.560013 12.0277 0.973435 11.8385 1.43193 11.8385ZM 12.2797 13.3527C 12.2248 13.6579 11.7752 14.1218 11.5591 14.3444L 7.44717 18.6375C 7.23781 18.8561 6.95665 18.9819 6.65549 18.9914L 6.65379 18.9915L 6.65331 18.9915C 6.64723 18.9918 6.64102 18.992 6.63501 18.9924L 6.62706 18.9924L 6.62079 18.9927C 6.61357 18.9922 6.60585 18.9917 6.59863 18.9914C 6.29771 18.9819 6.01679 18.8561 5.80742 18.6377L 1.77284 14.4252L 1.69502 14.3447L 1.69434 14.3439C 1.47797 14.1208 1.02904 13.6578 0.974412 13.3532C 0.95633 13.2523 0.952958 13.1092 1.03946 13.0007C 1.118 12.9016 1.26111 12.845 1.43218 12.845L 11.8222 12.845C 11.9932 12.845 12.1366 12.9019 12.2154 13.001C 12.3014 13.1089 12.2978 13.2518 12.2797 13.3527Z"/>
	</symbol>
	<symbol id="settings-icon" viewBox="0 0 20 20">
		<path fill-rule="evenodd" d="M 0.218204 13.8298L 1.63254 16.1466C 2.02954 16.8085 2.87319 17.0449 3.59276 16.7376L 4.58528 16.3121C 5.30486 16.8794 6.12368 17.3286 6.99213 17.6359L 7.09139 18.6761C 7.16582 19.4326 7.81096 20 8.60497 20L 11.4088 20C 12.2029 20 12.848 19.4326 12.9224 18.6761L 13.0217 17.6359C 13.8901 17.3286 14.709 16.8794 15.4285 16.3121L 16.4211 16.7376C 17.1406 17.0449 17.9843 16.8085 18.3813 16.1466L 19.7956 13.8298C 20.1926 13.1678 19.9941 12.3404 19.349 11.9149L 18.4309 11.3239C 18.5053 10.8983 18.555 10.4492 18.555 10C 18.555 9.55083 18.5053 9.12529 18.4309 8.67612L 19.3242 8.08511C 19.9693 7.65958 20.1678 6.83215 19.7708 6.17021L 18.3565 3.85342C 17.9594 3.19148 17.1158 2.95508 16.3962 3.26241L 15.4037 3.68794C 14.6841 3.12057 13.8653 2.6714 12.9969 2.36406L 12.8976 1.32388C 12.8232 0.567383 12.178 0 11.384 0L 8.58016 0C 7.78615 0 7.14101 0.567383 7.06658 1.32388L 6.96732 2.36406C 6.09887 2.6714 5.28003 3.12057 4.56046 3.68794L 3.56795 3.26241C 2.84838 2.95508 2.00473 3.19148 1.60773 3.85342L 0.193393 6.17021C -0.178814 6.83215 -0.00512363 7.63594 0.640018 8.08511L 1.53328 8.67612C 1.45885 9.10165 1.40921 9.55083 1.40921 10C 1.40921 10.4492 1.45885 10.8747 1.53328 11.3239L 0.640018 11.9149C -0.00512363 12.3641 -0.178814 13.1678 0.218204 13.8298ZM 15 10C 15 12.7638 12.7638 15 10 15C 7.23618 15 5 12.7638 5 10C 5 7.23618 7.26131 5 10 5C 12.7387 5 15 7.23618 15 10ZM 13.995 10C 13.995 7.78894 12.211 6.00502 10 6.00502C 7.78894 6.00502 6.00502 7.78894 6.00502 10C 6.00502 12.211 7.81407 13.995 10 13.995C 12.1859 13.995 13.995 12.211 13.995 10ZM 2.64986 11.7494L 1.23552 12.695C 0.9874 12.8369 0.937778 13.1442 1.06183 13.357L 2.501 15.6738C 2.64986 15.9102 2.94762 16.0047 3.19574 15.8865L 4.75896 15.2009L 5.0071 15.4137C 5.77629 16.052 6.64475 16.5485 7.61246 16.8558L 7.91021 16.9503L 8.05908 18.6052C 8.0839 18.8889 8.30721 19.078 8.58016 19.078L 11.4336 19.078C 11.7066 19.078 11.9299 18.8652 11.9547 18.6052L 12.1036 16.9503L 12.4014 16.8558C 13.3691 16.5485 14.2375 16.052 15.0067 15.4137L 15.2548 15.2009L 16.8181 15.8865C 17.091 15.9811 17.3639 15.9102 17.5128 15.6738L 18.8775 13.357C 19.0264 13.1442 18.952 12.8369 18.7287 12.695L 17.3143 11.7494L 17.3888 11.4421C 17.488 10.9693 17.5376 10.4964 17.5376 10C 17.5376 9.50354 17.488 9.03073 17.3888 8.55792L 17.3143 8.25058L 18.7287 7.30496C 18.952 7.16312 19.0264 6.87943 18.8775 6.64302L 17.4632 4.32623C 17.3143 4.08983 17.0166 3.99527 16.7684 4.11346L 15.2052 4.79906L 14.9571 4.58629C 14.1879 3.94798 13.3194 3.45154 12.3517 3.14421L 12.054 3.04964L 11.9051 1.39479C 11.8803 1.11111 11.657 0.921982 11.384 0.921982L 8.58016 0.921982C 8.30721 0.921982 8.0839 1.13475 8.05908 1.39479L 7.91021 3.04964L 7.61246 3.14421C 6.64475 3.45154 5.77629 3.94798 5.0071 4.58629L 4.75896 4.79906L 3.19574 4.11346C 2.92281 4.01891 2.64986 4.08983 2.501 4.32623L 1.08664 6.64302C 0.937778 6.85579 1.01221 7.16312 1.23552 7.30496L 2.64986 8.25058L 2.57543 8.55792C 2.47617 9.03073 2.42655 9.50354 2.42655 10C 2.42655 10.4964 2.47617 10.9693 2.57543 11.4421L 2.64986 11.7494Z"/>
	</symbol>
	<symbol id="log-out-icon" viewBox="0 0 20 20">
		<path fill-rule="evenodd" d="M 8.86241 19.1714C 9.46255 19.1714 10.001 18.3827 10.001 17.3505L 10.001 16.9362L 10.7641 16.9362L 10.7641 17.3505C 10.7641 18.7957 9.942 20 8.86241 20L 1.90172 20C 0.826324 20 0 18.7875 0 17.3505L 0 2.64952C 0 1.2043 0.822128 0 1.90172 0L 8.86241 0C 9.93781 0 10.7641 1.21252 10.7641 2.64952L 10.7641 3.06381L 10.001 3.06381L 10.001 2.64952C 10.001 1.62535 9.45799 0.828598 8.86241 0.828598L 1.90172 0.828598C 1.30157 0.828598 0.763153 1.61732 0.763153 2.64952L 0.763153 17.3505C 0.763153 18.3746 1.30614 19.1714 1.90172 19.1714L 8.86241 19.1714ZM 14.1757 4.84798L 18.0099 9.01103L 6.09906 9.01103L 6.09906 9.83963L 18.773 9.83963L 18.9207 10L 14.1757 15.152L 14.7153 15.7379L 19.4604 10.5859L 20 10L 19.4604 9.41409L 14.7153 4.26207L 14.1757 4.84798Z"/>
	</symbol>
	
	<!-- Social icons -->
	<symbol id="Facebook" viewBox="0 0 20 20">
		<path fill-rule="evenodd" d="M 10.6826 20L 1.10385 20C 0.49403 20 0 19.5057 0 18.8961L 0 1.10384C 0 0.494104 0.494108 0 1.10385 0L 18.8962 0C 19.5058 0 20 0.494104 20 1.10384L 20 18.8961C 20 19.5057 19.5057 20 18.8962 20L 13.7997 20L 13.7997 12.2549L 16.3994 12.2549L 16.7886 9.23649L 13.7997 9.23649L 13.7997 7.30943C 13.7997 6.43554 14.0424 5.84 15.2955 5.84L 16.8939 5.83931L 16.8939 3.13962C 16.6175 3.10284 15.6687 3.02065 14.5648 3.02065C 12.2603 3.02065 10.6826 4.4273 10.6826 7.0105L 10.6826 9.23649L 8.0763 9.23649L 8.0763 12.2549L 10.6826 12.2549L 10.6826 20Z"/>
	</symbol>
	<symbol id="Twitter" viewBox="0 0 24 20">
		<path fill-rule="evenodd" d="M 24 2.36764C 23.1182 2.76923 22.1687 3.04081 21.1727 3.16215C 22.1898 2.5381 22.9702 1.54857 23.3379 0.369809C 22.3856 0.947634 21.3333 1.368 20.2092 1.59336C 19.3133 0.612496 18.0328 0 16.6156 0C 13.8982 0 11.6936 2.26074 11.6936 5.04875C 11.6936 5.44456 11.7359 5.82882 11.8204 6.19863C 7.72812 5.98772 4.10072 3.97978 1.67072 0.921632C 1.2467 1.66992 1.0044 2.5381 1.0044 3.46262C 1.0044 5.21343 1.87357 6.75912 3.19493 7.66486C 2.38915 7.6403 1.62846 7.41062 0.96355 7.03503L 0.96355 7.09715C 0.96355 9.54424 2.66103 11.5854 4.91495 12.0477C 4.5022 12.1661 4.06691 12.2254 3.61754 12.2254C 3.30058 12.2254 2.99067 12.195 2.69061 12.1358C 3.31749 14.1408 5.13471 15.6013 7.29002 15.6403C 5.60521 16.9953 3.48089 17.8028 1.17485 17.8028C 0.777602 17.8028 0.384575 17.7797 0 17.7335C 2.17926 19.1636 4.76845 20 7.54781 20C 16.6057 20 21.5573 12.3077 21.5573 5.63525C 21.5573 5.41567 21.5531 5.1961 21.5446 4.98086C 22.5068 4.26869 23.3421 3.38028 24 2.36764Z"/>
	</symbol>
	<symbol id="Instagram" viewBox="0 0 20 20">
		<path fill-rule="evenodd" d="M 10 0C 7.28418 0 6.9436 0.0115051 5.87701 0.0601807C 4.81262 0.108719 4.08569 0.277786 3.44965 0.525009C 2.79205 0.780518 2.23438 1.12245 1.67841 1.67839C 1.12244 2.23436 0.780518 2.79204 0.525024 3.44962C 0.277771 4.08569 0.108704 4.81262 0.0601807 5.87701C 0.0115356 6.94362 0 7.28416 0 10C 0 12.7158 0.0115356 13.0564 0.0601807 14.123C 0.108704 15.1874 0.277771 15.9143 0.525024 16.5504C 0.780518 17.208 1.12244 17.7656 1.67841 18.3216C 2.23438 18.8775 2.79205 19.2195 3.44965 19.475C 4.08569 19.7222 4.81262 19.8913 5.87701 19.9398C 6.9436 19.9885 7.28418 20 10 20C 12.7158 20 13.0564 19.9885 14.123 19.9398C 15.1874 19.8913 15.9143 19.7222 16.5504 19.475C 17.2079 19.2195 17.7656 18.8775 18.3216 18.3216C 18.8776 17.7656 19.2195 17.208 19.475 16.5504C 19.7222 15.9143 19.8913 15.1874 19.9398 14.123C 19.9885 13.0564 20 12.7158 20 10C 20 7.28416 19.9885 6.94362 19.9398 5.87701C 19.8913 4.81262 19.7222 4.08569 19.475 3.44962C 19.2195 2.79204 18.8776 2.23436 18.3216 1.67839C 17.7656 1.12245 17.2079 0.780518 16.5504 0.525009C 15.9143 0.277786 15.1874 0.108719 14.123 0.0601807C 13.0564 0.0115051 12.7158 0 10 0ZM 10.0001 1.8018C 12.6701 1.8018 12.9864 1.81201 14.0409 1.86012C 15.0159 1.90457 15.5453 2.06749 15.8977 2.20444C 16.3645 2.38583 16.6976 2.60254 17.0475 2.95248C 17.3975 3.3024 17.6142 3.63551 17.7956 4.10229C 17.9326 4.45467 18.0955 4.98416 18.1399 5.95915C 18.188 7.01361 18.1982 7.3299 18.1982 10C 18.1982 12.6701 18.188 12.9864 18.1399 14.0409C 18.0955 15.0159 17.9326 15.5453 17.7956 15.8977C 17.6142 16.3645 17.3975 16.6976 17.0475 17.0475C 16.6976 17.3975 16.3645 17.6142 15.8977 17.7956C 15.5453 17.9325 15.0159 18.0954 14.0409 18.1399C 12.9866 18.188 12.6703 18.1982 10.0001 18.1982C 7.32971 18.1982 7.01349 18.188 5.95917 18.1399C 4.98419 18.0954 4.45465 17.9325 4.10229 17.7956C 3.63556 17.6142 3.30243 17.3975 2.95251 17.0475C 2.6026 16.6976 2.38586 16.3645 2.20447 15.8977C 2.0675 15.5453 1.9046 15.0159 1.86011 14.0409C 1.81201 12.9864 1.80182 12.6701 1.80182 10C 1.80182 7.3299 1.81201 7.01361 1.86011 5.95915C 1.9046 4.98416 2.0675 4.45467 2.20447 4.10229C 2.38586 3.63551 2.60254 3.3024 2.95251 2.95248C 3.30243 2.60254 3.63556 2.38583 4.10229 2.20444C 4.45465 2.06749 4.98419 1.90457 5.95917 1.86012C 7.01361 1.81201 7.3299 1.8018 10.0001 1.8018ZM 4.86487 10C 4.86487 7.16393 7.16394 4.86487 10 4.86487C 12.8361 4.86487 15.1351 7.16393 15.1351 10C 15.1351 12.8361 12.8361 15.1351 10 15.1351C 7.16394 15.1351 4.86487 12.8361 4.86487 10ZM 10.0001 13.3333C 8.15906 13.3333 6.66669 11.841 6.66669 10C 6.66669 8.15904 8.15906 6.66667 10.0001 6.66667C 11.841 6.66667 13.3334 8.15904 13.3334 10C 13.3334 11.841 11.841 13.3333 10.0001 13.3333ZM 15.338 5.86197C 16.0008 5.86197 16.5381 5.32474 16.5381 4.66199C 16.5381 3.99924 16.0008 3.46196 15.338 3.46196C 14.6754 3.46196 14.1381 3.99924 14.1381 4.66199C 14.1381 5.32474 14.6754 5.86197 15.338 5.86197Z"/>
	</symbol>
	<symbol id="LinkedIn" viewBox="0 0 22 20">
		<path fill-rule="evenodd" d="M 22 20L 17.1377 20L 17.1377 12.9692C 17.1377 11.1289 16.3771 9.87258 14.7046 9.87258C 13.4253 9.87258 12.7139 10.7204 12.3827 11.5374C 12.2586 11.8307 12.278 12.2392 12.278 12.6478L 12.278 20L 7.46094 20C 7.46094 20 7.52303 7.54562 7.46094 6.41352L 12.278 6.41352L 12.278 8.54582C 12.5625 7.6135 14.1018 6.2829 16.5582 6.2829C 19.6057 6.2829 22 8.23718 22 12.4454L 22 20ZM 2.5896 4.71409L 2.55856 4.71409C 1.00635 4.71409 0 3.67548 0 2.35897C 0 1.01684 1.0361 0 2.61936 0C 4.20132 0 5.17404 1.01428 5.20508 2.35513C 5.20508 3.67164 4.20132 4.71409 2.5896 4.71409ZM 0.554932 6.41353L 4.84291 6.41353L 4.84291 20L 0.554932 20L 0.554932 6.41353Z"/>
	</symbol>
	<symbol id="YouTube" viewBox="0 0 29 20">
		<path fill-rule="evenodd" d="M 11.2024 13.6882L 11.2015 5.69867L 18.8303 9.7072L 11.2024 13.6882ZM 27.9529 4.31421C 27.9529 4.31421 27.6768 2.35482 26.8306 1.49198C 25.7568 0.358999 24.5532 0.353668 24.0018 0.28791C 20.0506 0 14.1238 0 14.1238 0L 14.1115 0C 14.1115 0 8.18471 0 4.23353 0.28791C 3.68118 0.353668 2.47853 0.358999 1.40382 1.49198C 0.557647 2.35482 0.282353 4.31421 0.282353 4.31421C 0.282353 4.31421 0 6.61572 0 8.91634L 0 11.0739C 0 13.3754 0.282353 15.676 0.282353 15.676C 0.282353 15.676 0.557647 17.6354 1.40382 18.4982C 2.47853 19.6312 3.88941 19.5957 4.51765 19.7139C 6.77647 19.9325 14.1176 20 14.1176 20C 14.1176 20 20.0506 19.9911 24.0018 19.7032C 24.5532 19.6366 25.7568 19.6312 26.8306 18.4982C 27.6768 17.6354 27.9529 15.676 27.9529 15.676C 27.9529 15.676 28.2353 13.3754 28.2353 11.0739L 28.2353 8.91634C 28.2353 6.61572 27.9529 4.31421 27.9529 4.31421Z"/>
	</symbol>
	<symbol id="Snapchat" viewBox="0 0 21 20" >
		<path d="M 10.3587 0C 10.341 0 10.2892 0.00166578 10.2646 0C 10.2037 0.00124934 10.1692 0 10.1704 0C 8.91851 0 8.13799 0.55887 7.34529 1.14286C 6.8618 1.47297 6.36981 1.82528 5.74439 1.90476C 5.50751 1.97062 5.22596 1.99436 4.99103 2C 4.46394 1.99436 4.07759 1.91773 3.76682 1.90476C 3.62383 1.82778 3.47587 1.79863 3.39013 1.80952C 3.2457 1.79863 3.1187 1.82445 3.10762 2C 3.01512 2.18218 2.9806 2.34251 2.91928 2.47619C 2.86058 2.89805 2.79934 3.14417 2.63677 3.14286C 0.705229 3.47191 0.152827 3.88377 0 4.19048C 0.0126714 4.21735 0.00239602 4.25941 0 4.28571C -0.00582424 4.41308 0.0722683 4.51219 0.188341 4.57143C 3.14706 5.02483 4.47669 8.09571 4.52018 8.19048C 4.53341 8.22938 4.53505 8.23313 4.52018 8.19048C 4.71836 8.60918 4.75371 8.93276 4.61435 9.2381C 4.43928 9.68361 3.7755 9.89725 3.29596 10C 3.22885 10.073 3.12692 10.1055 3.01345 10.0952C 2.16967 10.489 2.09692 10.8492 2.16592 11.0476C 2.19022 11.3461 2.60288 11.5643 2.91928 11.5238C 3.02828 11.5643 3.10883 11.5476 3.20179 11.5238C 3.57122 11.3286 3.92634 11.2336 4.23767 11.2381C 4.65712 11.2336 4.84208 11.4139 4.89686 11.4286C 4.85359 11.6409 4.84043 11.8533 4.80269 12.0952C 4.7385 13.4928 4.62876 15.2582 5.0852 16.2857C 6.40187 19.2852 9.2206 19.5201 10.0762 19.5238C 10.0743 19.5201 10.4179 19.5238 10.4529 19.5238C 11.3012 19.5238 14.1265 19.2889 15.4439 16.2857C 15.9 15.2594 15.7902 13.4928 15.7265 12.0952L 15.7265 12C 15.6858 11.8141 15.6739 11.6222 15.6323 11.4286C 15.6854 11.416 15.8556 11.2503 16.1973 11.2381C 16.5321 11.2465 16.8675 11.3411 17.2332 11.5238C 17.3435 11.5668 17.4635 11.5776 17.5157 11.619C 17.6698 11.5776 17.796 11.553 17.8924 11.5238C 18.2049 11.399 18.4002 11.1878 18.3632 10.9524C 18.4084 10.7585 18.2514 10.4457 17.5157 10.0952C 17.4026 10.1059 17.3007 10.0734 17.2332 10C 16.7528 9.89725 16.0895 9.68361 15.9148 9.2381C 15.775 8.93276 15.8104 8.6096 16.009 8.19048C 15.9937 8.23313 15.9953 8.2298 16.009 8.19048C 16.0521 8.09571 17.3804 5.02567 20.3408 4.57143C 20.4565 4.51219 20.535 4.41308 20.5291 4.28571C 20.5263 4.25899 20.5161 4.21651 20.5291 4.19048C 20.3759 3.88544 19.8243 3.47399 17.8924 3.14286C 17.7372 3.1475 17.676 2.93927 17.6099 2.47619C 17.5477 2.34417 17.5132 2.18801 17.4215 2C 17.4244 1.8815 17.3369 1.81487 17.2332 1.80952L 17.139 1.80952C 17.0631 1.81487 16.9181 1.83361 16.7623 1.90476C 16.4072 1.93481 16.041 1.99436 15.5381 2C 15.3028 1.99436 15.0212 1.97062 14.7848 1.90476C 14.1593 1.82528 13.6678 1.4738 13.1839 1.14286C 12.3912 0.55887 11.6106 0 10.3587 0Z"/>
		<path fill-rule="evenodd" d="M 5.10029 16.6053C 6.4853 19.7518 9.4213 19.9967 10.2875 19.9967C 10.2987 19.9967 10.3637 19.9973 10.4396 19.9979C 10.5455 19.9989 10.6725 20 10.703 20C 11.5717 20 14.5139 19.7551 15.8997 16.6069C 16.3658 15.5477 16.2542 13.7479 16.1641 12.3023L 16.1603 12.241L 16.1519 12.1007C 16.1453 11.993 16.139 11.8883 16.1332 11.7858C 16.1982 11.7495 16.3119 11.7049 16.486 11.697C 16.7483 11.7086 17.0526 11.7962 17.391 11.9568C 17.5351 12.0253 17.6891 12.0395 17.7933 12.0395C 17.9452 12.0395 18.1004 12.0094 18.2322 11.9539C 18.6208 11.8134 18.8654 11.5297 18.8716 11.2113C 18.8789 10.8062 18.522 10.4566 17.8101 10.1717C 17.7232 10.1371 17.6179 10.1028 17.5054 10.0665C 17.1036 9.93762 16.4963 9.74237 16.3316 9.34897C 16.2464 9.14496 16.2802 8.88297 16.4424 8.54837C 16.4955 8.42236 17.7801 5.45358 20.6354 4.97675C 20.8548 4.94003 21.0117 4.74228 20.9993 4.517C 20.9956 4.4494 20.9796 4.38223 20.9524 4.31757C 20.7383 3.81235 19.835 3.44104 18.1893 3.18237C 18.1351 3.10803 18.0789 2.84769 18.0438 2.68539L 18.0428 2.68048C 18.0078 2.51779 17.9724 2.35715 17.9225 2.18652C 17.8542 1.94916 17.6817 1.81815 17.4128 1.81815C 17.2963 1.81815 17.137 1.83817 16.9385 1.87781C 16.6223 1.94037 16.2678 1.99796 15.8195 1.99796C 15.5588 1.99796 15.2887 1.97501 15.017 1.92953C 14.4865 1.83987 14.0359 1.51724 13.5129 1.14279L 13.5122 1.14227C 12.7649 0.606598 11.9176 0 10.6297 0C 10.5721 0 10.5177 0.00167847 10.4761 0.00375366C 10.4407 0.000823975 10.4053 0 10.3699 0C 9.08244 0 8.23512 0.606598 7.48704 1.1427L 7.48585 1.14355C 6.9643 1.517 6.51331 1.8399 5.98301 1.92953C 5.71128 1.97501 5.44117 1.99796 5.18055 1.99796C 4.71079 1.99796 4.3353 1.92371 4.0611 1.86945C 3.8787 1.83316 3.72059 1.80188 3.5868 1.80188C 3.25578 1.80188 3.1269 2.00629 3.07749 2.17734C 3.02683 2.35175 2.99143 2.51654 2.95725 2.67673L 2.95698 2.67807C 2.92197 2.84048 2.86488 3.10541 2.80985 3.1803C 1.16462 3.43896 0.261299 3.8111 0.0467911 4.31839C 0.0200272 4.38306 0.00440222 4.4494 0.000679078 4.51657C -0.01165 4.74146 0.14521 4.94003 0.364662 4.97675C 3.2187 5.45276 4.5041 8.42197 4.56709 8.56964C 4.71943 8.88254 4.75361 9.14496 4.66837 9.34897C 4.50336 9.74216 3.89668 9.93741 3.49482 10.0667L 3.49415 10.067C 3.38258 10.1024 3.27717 10.1362 3.18946 10.1717C 2.21699 10.5609 2.08152 11.0081 2.13917 11.3148C 2.21864 11.7403 2.73124 12.0261 3.15983 12.0261C 3.28333 12.0261 3.39533 12.0027 3.4925 11.9568C 3.85853 11.7829 4.18336 11.6953 4.45841 11.6953C 4.66425 11.6953 4.7952 11.7453 4.86683 11.7854C 4.85764 11.9514 4.8469 12.1228 4.83649 12.2883L 4.83555 12.3036C 4.7458 13.7483 4.63419 15.5464 5.10029 16.6053ZM 15.7829 12.3112C 15.8699 13.7104 15.9781 15.4517 15.5549 16.4127C 14.2697 19.3331 11.5422 19.5486 10.7029 19.5482C 10.7029 19.5482 10.3546 19.5449 10.3348 19.5449C 9.53349 19.5449 6.81956 19.3205 5.53928 16.411C 5.11616 15.4498 5.22422 13.7104 5.3112 12.3109L 5.31132 12.3088L 5.31776 12.204C 5.32917 12.0192 5.34025 11.8397 5.34925 11.6667L 5.35419 11.579L 5.29609 11.5134C 5.27094 11.4846 5.03269 11.2327 4.49848 11.2327C 4.15882 11.2327 3.77094 11.3351 3.34638 11.5364C 3.30845 11.5548 3.25694 11.564 3.1984 11.564C 2.93705 11.564 2.6374 11.386 2.60484 11.211C 2.57597 11.0589 2.76682 10.8087 3.3884 10.5597C 3.46015 10.5309 3.55494 10.5004 3.66459 10.4653L 3.66596 10.4649C 4.14494 10.3107 4.8668 10.0784 5.10975 9.49783C 5.24702 9.16992 5.20951 8.78394 4.99848 8.34949C 4.91151 8.14352 3.54548 5.02469 0.483223 4.46033C 0.535591 4.33627 0.866585 3.90601 2.92799 3.5835C 3.24992 3.53296 3.32948 3.16452 3.42139 2.7384C 3.45396 2.58636 3.48817 2.42844 3.53434 2.26929C 3.55 2.21457 3.55164 2.21039 3.62583 2.21039C 3.71735 2.21039 3.85627 2.23755 4.01704 2.26971C 4.30967 2.32779 4.70994 2.40674 5.22147 2.40674C 5.50672 2.40674 5.80103 2.38126 6.09617 2.33194C 6.72642 2.22543 7.2396 1.85782 7.78288 1.46848C 8.51206 0.945892 9.2664 0.405762 10.4168 0.405762C 10.4461 0.405762 10.4746 0.407013 10.5285 0.409943C 10.578 0.40744 10.6271 0.405762 10.6769 0.405762C 11.8274 0.405762 12.5817 0.945892 13.3109 1.4689L 13.3119 1.46964C 13.8548 1.85828 14.3678 2.22549 14.998 2.33194C 15.2932 2.38126 15.5875 2.40674 15.8727 2.40674C 16.3843 2.40674 16.7845 2.33572 17.0768 2.27765C 17.2375 2.24591 17.3768 2.22668 17.4923 2.22668C 17.5434 2.22668 17.5458 2.22961 17.5599 2.27765C 17.606 2.4368 17.6402 2.59055 17.6728 2.74258L 17.6731 2.7438C 17.7649 3.16937 17.8438 3.5351 18.1662 3.58557C 20.2272 3.90765 20.5586 4.3371 20.6233 4.51172C 17.5483 5.02512 16.1827 8.14438 16.0957 8.34949C 15.8843 8.78394 15.8472 9.17032 15.984 9.49826C 16.2273 10.0781 16.9486 10.3105 17.4272 10.4647L 17.4292 10.4653C 17.5388 10.5004 17.6336 10.5309 17.7058 10.5597C 18.4411 10.8542 18.4939 11.1099 18.4927 11.1813C 18.4902 11.3071 18.3435 11.4462 18.1238 11.5247C 18.0417 11.5598 17.9424 11.5773 17.8488 11.5773C 17.7668 11.5773 17.6889 11.564 17.6312 11.5364C 17.2351 11.3484 16.8706 11.2469 16.531 11.2344C 16.0417 11.2536 15.8216 11.4867 15.7985 11.513L 15.74 11.579L 15.7449 11.6671C 15.7557 11.8727 15.7688 12.0878 15.7829 12.3101L 15.7829 12.3112Z"/>
	</symbol>
	<symbol id="GooglePlus" viewBox="0 0 32 20">
		<path fill-rule="evenodd" d="M 27.9694 8.21782L 27.9694 4.75247L 25.4986 4.75247L 25.4986 8.21782L 21.9407 8.21782L 21.9407 10.6931L 25.4986 10.6931L 25.4986 14.2574L 27.9694 14.2574L 27.9694 10.6931L 31.4285 10.6931L 31.4285 8.21782L 27.9694 8.21782ZM 9.98203 8.0198L 9.98203 11.9802C 9.98203 11.9802 13.8171 11.975 15.3787 11.975C 14.533 14.5425 13.2182 15.9406 9.98203 15.9406C 6.70704 15.9406 4.15094 13.2809 4.15094 10C 4.15094 6.71911 6.70704 4.05941 9.98203 4.05941C 11.7136 4.05941 12.8319 4.66911 13.8576 5.51891C 14.6787 4.69634 14.6101 4.57911 16.6991 2.60277C 14.9258 0.985743 12.5689 0 9.98203 0C 4.46908 0 0 4.47713 0 10C 0 15.5228 4.46908 20 9.98203 20C 18.2223 20 20.2364 12.8119 19.5687 8.0198C 17.618 8.0198 9.98203 8.0198 9.98203 8.0198Z"/>
	</symbol>
	<symbol id="Vine" viewBox="0 0 18 20">
		<path fill-rule="evenodd" d="M 17.3913 9.94255C 16.8805 10.0613 16.3858 10.1138 15.9413 10.1138C 13.4381 10.1138 11.5113 8.3513 11.5113 5.2869C 11.5113 3.78502 12.0872 3.00377 12.9018 3.00377C 13.6767 3.00377 14.1931 3.70502 14.1931 5.1269C 14.1931 5.93566 13.978 6.82129 13.8199 7.34566C 13.8199 7.34566 14.5911 8.70192 16.7001 8.28567C 17.1477 7.28379 17.3913 5.98503 17.3913 4.84628C 17.3913 1.78251 15.8415 0 13.001 0C 10.0812 0 8.37267 2.26314 8.37267 5.2469C 8.37267 8.20317 9.74332 10.7413 12.0036 11.8976C 11.0532 13.8138 9.84375 15.5026 8.58221 16.7751C 6.29407 13.9857 4.22539 10.2651 3.3761 3.00377L 0 3.00377C 1.55972 15.097 6.20852 18.9476 7.43721 19.687C 8.13276 20.1076 8.73161 20.0876 9.36703 19.727C 10.3651 19.1545 13.3618 16.1345 15.0226 12.5963C 15.7194 12.5944 16.5569 12.5138 17.3913 12.3232L 17.3913 9.94255Z"/>
	</symbol>

	<!-- Arrows -->
	<symbol id="Arrow" viewBox="0 0 7 12">
		<path fill-rule="evenodd" d="M 7 5.68589L 3.5 0L 0 5.68421L 2.26471 5.68421L 2.26471 12L 4.73529 12L 4.73529 5.68421L 7 5.68589Z"/>
	</symbol>

	<symbol id="Close" viewBox="0 0 12 12">
		<path fill-rule="evenodd" d="M 5.00635 6L 0.496826 1.49038L 0 0.993586L 0.993652 0L 1.49048 0.496792L 6 5.00637L 10.5095 0.496792L 11.0063 0L 12 0.993586L 11.5032 1.49038L 6.99365 6L 11.5032 10.5096L 12 11.0064L 11.0063 12L 10.5095 11.5032L 6 6.99363L 1.49048 11.5032L 0.993652 12L 0 11.0064L 0.496826 10.5096L 5.00635 6Z"/>
	</symbol>


</svg>
